PathFileType	4	(X/Y/Z)	s07c0301.trc
DataRate	CameraRate	NumFrames	NumMarkers	Units	OrigDataRate	OrigDataStartFrame	OrigNumFrames
200	200	4	48	mm	200	0	2000
Frame#	Time	racr			lacr			c7			jug			rlel			rdr			llel			ldr			s2			lic			ric			lasi			rasi			rpsi			lpsi			rgt			lgt			rth1			rth2			rth3			rth4			rlfc			rmfc			rsh1			rsh2			rsh3			rsh4			rlmal			rcal			rtoe			rmt5			lth1			lth2			lth4			lth3			llfc			lmfc			lsh1			lsh2			lsh3			lsh4			llmal			lcal			ltoe			lmt5			SBIKE			LBIKE			RBIKE			
		X1	Y1	Z1	X2	Y2	Z2	X3	Y3	Z3	X4	Y4	Z4	X5	Y5	Z5	X6	Y6	Z6	X7	Y7	Z7	X8	Y8	Z8	X9	Y9	Z9	X10	Y10	Z10	X11	Y11	Z11	X12	Y12	Z12	X13	Y13	Z13	X14	Y14	Z14	X15	Y15	Z15	X16	Y16	Z16	X17	Y17	Z17	X18	Y18	Z18	X19	Y19	Z19	X20	Y20	Z20	X21	Y21	Z21	X22	Y22	Z22	X23	Y23	Z23	X24	Y24	Z24	X25	Y25	Z25	X26	Y26	Z26	X27	Y27	Z27	X28	Y28	Z28	X29	Y29	Z29	X30	Y30	Z30	X31	Y31	Z31	X32	Y32	Z32	X33	Y33	Z33	X34	Y34	Z34	X35	Y35	Z35	X36	Y36	Z36	X37	Y37	Z37	X38	Y38	Z38	X39	Y39	Z39	X40	Y40	Z40	X41	Y41	Z41	X42	Y42	Z42	X43	Y43	Z43	X44	Y44	Z44	X45	Y45	Z45	X46	Y46	Z46	X47	Y47	Z47	X48	Y48	Z48	
0	0.0000	443.182070	1436.774940	-107.422516	422.555030	1424.019592	-373.690099	411.331572	1465.415054	-249.724860	374.275466	1327.180748	-243.704155	523.606056	1123.840935	10.013456	717.417109	910.798345	-73.766213	526.106460	1126.814589	-477.321968	721.335119	907.709875	-418.335184	-148.601837	1210.129673	-250.880249	18.883001	1255.726852	-391.141062	23.856354	1246.372153	-97.755847	48.448291	1174.404838	-364.267966	33.001778	1188.188609	-115.476943	-121.329390	1247.705568	-198.246142	-107.256225	1257.153494	-306.384416	-42.186114	1122.963763	-55.026021	-43.302527	1099.854487	-421.855664	90.288478	1052.445156	-46.526884	174.196135	1028.543941	-56.437350	237.866582	971.624739	-52.224108	189.650333	1057.731940	-72.690462	353.427788	882.698678	-85.597999	354.053705	864.538895	-179.493148	314.129969	744.002547	-63.729058	309.501472	656.551832	-84.955964	266.060623	581.469580	-82.097667	325.162550	656.836065	-121.862120	219.491649	452.836508	-86.417605	153.611641	411.977290	-113.865064	427.161913	391.626157	-115.899722	367.353669	360.876785	-58.750217	21.425837	995.697199	-426.976055	93.279492	946.514464	-430.837866	121.424084	968.169870	-423.124889	132.063527	864.576194	-425.117529	228.782873	713.157447	-390.166846	218.106346	699.553940	-293.363996	129.774281	599.762166	-410.190774	86.623505	528.252737	-388.523638	11.447732	479.203647	-398.017568	88.936826	530.550457	-347.266355	-87.557258	386.001403	-395.599380	-167.122384	362.991606	-362.024827	112.000302	287.373169	-359.282066	28.293498	279.505324	-422.445028	-265.078311	972.797604	-237.353601	-83.969792	79.128690	-436.939700	-83.710652	78.841844	-39.327806	
1	0.0050	443.143880	1436.707297	-107.424166	432.524061	1426.591966	-377.490888	411.391636	1465.303581	-249.651707	374.243905	1327.116457	-243.687491	523.920590	1124.054856	10.320919	717.380075	910.838251	-73.754756	526.064963	1126.760397	-477.446984	721.321957	907.744273	-418.337798	-148.596291	1210.141734	-250.895340	18.852017	1255.745075	-391.175297	23.854315	1246.360635	-97.760340	48.438015	1174.378120	-364.304100	32.993171	1188.195528	-115.455803	-121.329268	1247.705685	-198.246619	-107.243493	1257.147019	-306.410147	-42.177928	1122.968827	-55.045053	-43.327623	1099.860506	-421.889575	89.673023	1051.444461	-48.070455	173.612925	1027.562700	-57.460499	237.871142	971.651746	-52.252487	189.692896	1057.748663	-72.703112	353.429094	882.728238	-85.614928	354.038210	864.534097	-179.478112	314.146413	744.007556	-63.760164	309.510623	656.567600	-84.972648	266.084215	581.494462	-82.112357	325.154722	656.838053	-121.877428	219.490610	452.861237	-86.413417	153.609963	412.015115	-113.863617	427.097737	391.621809	-115.854075	367.360401	360.895147	-58.763779	21.399277	995.697203	-427.013362	93.263815	946.479588	-430.827922	121.404693	968.175095	-423.139934	132.043842	864.565871	-425.149817	228.764008	713.133609	-390.176734	218.088811	699.544174	-293.395501	129.742311	599.757841	-410.215098	86.617532	528.231199	-388.516582	11.441077	479.183434	-398.040701	88.935745	530.525130	-347.291211	-87.577219	385.971821	-395.603638	-167.137783	362.960083	-362.037203	111.999512	287.383838	-359.295891	28.282607	279.504125	-422.455332	-265.084098	972.794037	-237.331263	-83.970637	79.215353	-437.001726	-83.722871	78.882250	-39.335599	
2	0.0100	443.152776	1436.679267	-107.406837	432.536848	1426.551686	-377.465318	411.435822	1465.250080	-249.642611	374.208633	1327.050569	-243.671832	523.876255	1124.003826	10.395983	717.375622	910.857400	-73.718715	526.012480	1126.686171	-477.586180	721.319288	907.749714	-418.362103	-148.596308	1210.136406	-250.903483	18.836806	1255.735572	-391.173390	23.849479	1246.337774	-97.751238	48.405778	1174.378851	-364.304293	32.998413	1188.184653	-115.469469	-121.338889	1247.718602	-198.248962	-107.256405	1257.149938	-306.423845	-42.180341	1122.975627	-55.036242	-43.352512	1099.851387	-421.898466	90.327317	1052.463391	-46.559863	174.216424	1028.545783	-56.499083	237.881913	971.676872	-52.248365	189.687851	1057.771387	-72.726380	353.426699	882.745964	-85.612327	354.054945	864.551862	-179.490350	314.143300	744.023868	-63.771086	309.517592	656.582889	-84.975799	266.056239	581.506369	-82.111823	325.160585	656.844811	-121.891741	219.466718	452.885068	-86.416944	153.614114	412.019600	-113.882579	427.135608	391.640759	-115.876167	367.347356	360.938488	-58.763143	21.382282	995.696169	-427.013065	93.232063	946.474403	-430.846503	121.378395	968.165754	-423.152737	132.020686	864.559651	-425.174455	228.732090	713.140307	-390.203485	218.086623	699.542200	-293.403931	129.732787	599.734152	-410.215836	86.601304	528.224330	-388.519995	11.423405	479.172628	-398.050431	88.936007	530.495580	-347.292119	-87.577562	385.950626	-395.602084	-167.143828	362.932649	-362.037078	111.992253	287.380344	-359.297413	28.287502	279.497794	-422.456819	-265.090675	972.796190	-237.348403	-83.968298	79.223535	-436.999770	-83.706171	78.859944	-39.346349	
3	0.0150	442.930889	1437.329165	-107.218554	421.187247	1424.385182	-375.049870	411.304578	1464.970690	-249.463557	374.210858	1327.000174	-243.669733	524.058931	1124.806127	11.584211	717.367370	910.869835	-73.701462	525.970299	1126.644317	-477.697660	721.306698	907.758335	-418.391947	-148.605697	1210.124494	-250.898188	17.707339	1255.073817	-389.010659	23.745017	1246.298066	-98.258130	48.411586	1174.392449	-364.337031	32.986277	1188.188580	-115.479900	-121.324758	1247.695693	-198.269933	-107.268894	1257.144690	-306.411098	-42.166902	1122.985634	-55.049058	-43.075365	1099.888765	-421.141017	89.699537	1051.464673	-48.100894	174.114560	1029.003054	-56.361182	237.891048	971.666545	-52.268470	189.704883	1057.771326	-72.745222	353.448990	882.691749	-85.620160	352.650849	866.743673	-184.852011	314.163181	744.037145	-63.774108	309.442982	656.565911	-85.039775	266.055515	581.524979	-82.118691	325.149460	656.740979	-122.012448	219.036517	453.479373	-85.991725	153.600027	412.024862	-113.871876	427.084814	391.687188	-115.799564	367.323049	360.956537	-58.758691	21.350266	995.667215	-427.027992	93.555333	945.267887	-429.736543	121.351289	968.192386	-423.182114	132.008862	864.547839	-425.152590	228.710366	713.130111	-390.191237	217.981004	699.423538	-293.474156	129.826583	599.549579	-410.423711	86.803474	527.858897	-388.622278	11.434284	479.133532	-398.034943	89.477830	530.256537	-346.986933	-87.599346	386.239677	-396.087614	-167.140155	362.897624	-362.042417	112.009409	287.351379	-359.288327	28.289779	279.463841	-422.458543	-264.974376	972.733864	-237.871473	-83.967955	79.227482	-437.006620	-83.729447	78.874485	-39.344925	
